<svg width="80" height="80" viewBox="0 0 80 80" fill="none" xmlns="http://www.w3.org/2000/svg">
<path d="M56.6667 36.6667V10H23.3333V23.3333H10V70H36.6667V56.6667H43.3333V70H70V36.6667H56.6667ZM23.3333 63.3333H16.6667V56.6667H23.3333V63.3333ZM23.3333 50H16.6667V43.3333H23.3333V50ZM23.3333 36.6667H16.6667V30H23.3333V36.6667ZM36.6667 50H30V43.3333H36.6667V50ZM36.6667 36.6667H30V30H36.6667V36.6667ZM36.6667 23.3333H30V16.6667H36.6667V23.3333ZM50 50H43.3333V43.3333H50V50ZM50 36.6667H43.3333V30H50V36.6667ZM50 23.3333H43.3333V16.6667H50V23.3333ZM63.3333 63.3333H56.6667V56.6667H63.3333V63.3333ZM63.3333 50H56.6667V43.3333H63.3333V50Z" fill="black"/>
</svg>
